# xmcd CD database file
#
# Track frame offsets:
#	150
#	17084
#	42434
#	68933
#	86329
#	109613
#	121433
#
# Disc length: 2329 seconds
#
# Revision: 0
# Processed by: cddbd v1.5.1PL0 Copyright (c) Steve Scherf et al.
# Submitted via: CDex 1.51
#
DISCID=55091707
DTITLE=laurindo almeida &modern jazz quartet/almeida  - " Collaboration"
DYEAR=1964
DGENRE=Jazz
TTITLE0=Modern Jazz Quartet With Lauri - Silver
TTITLE1=Modern Jazz Quartet With Lauri - Trieste
TTITLE2=Modern Jazz Quartet With Lauri - Valeria
TTITLE3=Modern Jazz Quartet With Lauri - Fugue In A Minor
TTITLE4=Modern Jazz Quartet With Lauri - One Note Samba
TTITLE5=Modern Jazz Quartet With Lauri - Foi A Saudade
TTITLE6=Modern Jazz Quartet With Lauri - Concierto De Aranjuez
EXTD=YEAR: 1964
EXTT0=
EXTT1=
EXTT2=
EXTT3=
EXTT4=
EXTT5=
EXTT6=
PLAYORDER=
